<?xml version="1.0" standalone="no"?>
<!DOCTYPE svg PUBLIC "-//W3C//DTD SVG 20010904//EN"
 "http://www.w3.org/TR/2001/REC-SVG-20010904/DTD/svg10.dtd">
<svg version="1.0" xmlns="http://www.w3.org/2000/svg"
 width="2000.000000pt" height="2000.000000pt" viewBox="0 0 2000.000000 2000.000000"
 preserveAspectRatio="xMidYMid meet">

<g transform="translate(0.000000,2000.000000) scale(0.100000,-0.100000)"
fill="#000000" stroke="none">
<path d="M13222 18888 c-21 -21 -14 -66 13 -84 23 -15 27 -15 50 0 31 21 35
70 6 86 -26 13 -54 13 -69 -2z"/>
<path d="M16892 18888 c-21 -21 -14 -66 13 -84 23 -15 27 -15 50 0 31 21 35
70 6 86 -26 13 -54 13 -69 -2z"/>
<path d="M8658 18711 c-182 -59 -287 -196 -424 -553 -19 -51 -36 -93 -37 -95
-2 -1 -27 4 -57 13 -82 22 -234 29 -329 15 -74 -11 -214 -51 -228 -65 -3 -3
12 -25 34 -49 54 -59 77 -120 71 -195 -6 -82 -46 -140 -175 -253 -264 -231
-422 -495 -474 -789 -30 -173 -7 -450 51 -603 19 -48 20 -79 20 -447 0 -217 5
-512 10 -654 6 -143 8 -261 6 -264 -2 -2 -15 4 -29 12 -24 16 -24 16 -65 -43
-23 -32 -44 -65 -47 -73 -4 -9 23 -34 80 -73 83 -57 85 -59 85 -99 0 -23 7
-88 15 -144 24 -168 46 -220 81 -191 20 16 66 109 89 177 11 36 21 52 30 48 8
-3 70 -43 138 -90 l124 -85 33 -138 c84 -355 182 -549 314 -627 63 -37 206
-82 321 -103 144 -25 542 -25 674 0 194 36 304 92 386 196 80 100 145 261 180
442 9 46 18 93 20 105 8 37 266 142 390 158 136 18 425 -85 433 -154 17 -147
72 -333 133 -452 122 -234 332 -320 779 -321 383 0 638 67 759 199 90 98 166
283 231 557 l32 137 125 86 c68 47 126 84 127 82 2 -1 18 -48 36 -103 34 -106
62 -169 81 -181 32 -19 62 92 80 296 l12 135 94 65 c58 40 92 69 89 77 -15 39
-88 133 -99 127 -7 -4 -25 -16 -40 -27 -16 -10 -29 -18 -30 -16 -1 2 1 121 4
264 4 143 7 444 8 668 1 399 2 410 25 495 34 122 46 213 46 344 0 133 -11 218
-45 348 -138 537 -636 1059 -1370 1436 -479 247 -909 357 -1435 371 -456 11
-876 -76 -1176 -243 l-62 -34 -26 31 c-46 55 -60 90 -60 154 0 43 6 72 22 103
26 48 23 49 -60 23z m167 -2130 c284 -293 608 -520 915 -642 126 -49 259 -85
523 -139 668 -136 1255 -196 1494 -154 l32 6 -46 56 c-128 157 -222 360 -289
620 -19 74 -33 136 -32 138 2 1 38 -53 80 -120 234 -372 505 -651 704 -725 30
-12 60 -21 67 -21 9 0 32 -90 71 -272 60 -281 160 -721 170 -748 5 -11 -17
-31 -73 -69 l-80 -54 -188 27 c-536 75 -1079 87 -1457 30 -238 -35 -417 -85
-451 -125 -23 -29 -23 -29 -72 -14 -26 8 -86 20 -131 25 -95 12 -219 -4 -314
-40 -33 -12 -54 -16 -56 -10 -2 6 -15 24 -29 40 -18 22 -48 37 -116 59 -223
71 -431 100 -767 108 -350 8 -625 -12 -1028 -73 l-173 -26 -85 56 c-51 34 -84
62 -81 70 12 31 140 551 182 741 l47 210 327 330 c347 350 404 412 496 540 64
89 147 253 166 329 l12 48 40 -48 c23 -27 86 -96 142 -153z m135 -2221 c197
-15 466 -62 509 -90 13 -7 13 -24 2 -121 -42 -362 -164 -603 -340 -670 -135
-51 -229 -63 -491 -63 -266 -1 -361 11 -510 60 -167 56 -230 130 -313 370 -39
113 -96 341 -100 399 l-2 39 80 13 c394 62 852 86 1165 63z m2785 -20 c142
-12 442 -49 468 -56 22 -7 20 -27 -29 -224 -55 -228 -123 -396 -193 -481 -88
-107 -347 -171 -686 -172 -257 0 -436 30 -548 91 -152 82 -257 317 -298 665
-6 54 -10 100 -8 102 19 18 387 75 579 89 95 7 589 -3 715 -14z"/>
<path d="M11040 15053 c-140 -7 -273 -25 -327 -44 -122 -41 -206 -123 -188
-181 16 -48 149 -105 314 -133 77 -14 102 -14 256 2 346 34 682 20 984 -41
125 -25 135 -22 106 34 -26 50 -164 183 -225 217 -200 112 -544 167 -920 146z"/>
<path d="M8490 15029 c-199 -22 -389 -81 -507 -158 -92 -60 -229 -219 -206
-242 6 -6 49 -1 124 15 306 66 569 77 951 42 234 -22 291 -18 445 34 148 49
185 101 128 176 -37 48 -170 111 -265 124 -100 15 -564 21 -670 9z"/>
<path d="M8644 14336 c-143 -46 -232 -179 -222 -330 6 -90 39 -157 108 -219
129 -116 318 -108 442 18 67 68 91 136 86 240 -7 125 -67 219 -175 271 -65 32
-174 42 -239 20z"/>
<path d="M11093 14336 c-227 -74 -301 -349 -144 -528 41 -47 136 -95 206 -103
125 -16 263 62 322 183 37 76 39 190 5 268 -29 64 -102 136 -167 165 -61 27
-164 34 -222 15z"/>
<path d="M13221 15786 c-20 -24 -9 -69 19 -83 32 -16 64 3 68 41 4 35 -14 56
-48 56 -15 0 -33 -6 -39 -14z"/>
<path d="M11118 12517 c-105 -51 -109 -53 -135 -107 -16 -30 -57 -84 -93 -120
-129 -131 -318 -199 -675 -246 -191 -26 -628 -26 -744 -1 -156 34 -253 91
-296 176 -23 46 -23 47 -109 67 -47 12 -84 18 -82 15 2 -3 22 -46 45 -94 55
-115 131 -244 198 -335 46 -62 58 -73 76 -68 12 4 90 24 172 46 254 65 342 64
493 -11 l83 -41 37 26 c50 34 119 64 168 71 53 9 222 -9 379 -39 149 -30 131
-36 225 79 109 134 226 318 316 497 53 105 66 138 56 137 -4 0 -55 -24 -114
-52z"/>
<path d="M11651 11360 l-65 -59 30 -23 c206 -160 428 -490 524 -776 67 -199
75 -265 74 -607 -1 -364 -30 -690 -103 -1167 -16 -107 -16 -118 -2 -118 9 0
46 -11 83 -24 l67 -24 5 27 c21 98 77 534 102 791 22 230 30 689 14 832 -37
348 -189 693 -434 985 -72 87 -210 223 -224 223 -4 -1 -36 -28 -71 -60z"/>
<path d="M8149 11313 c-262 -269 -449 -614 -520 -958 -27 -132 -36 -439 -20
-670 16 -234 75 -787 97 -911 5 -30 5 -30 -78 -62 -474 -180 -764 -736 -723
-1386 l7 -119 74 7 c41 4 80 9 88 12 10 4 11 41 8 167 -11 413 110 754 350
982 140 134 287 202 459 212 434 27 855 -376 995 -952 13 -55 24 -112 24 -127
0 -15 3 -29 8 -31 4 -2 44 0 90 6 81 10 82 10 82 39 0 79 -69 319 -135 469
-200 455 -564 744 -978 775 -51 4 -90 12 -92 18 -13 49 -38 223 -55 372 -99
905 -80 1184 105 1556 94 189 188 322 329 466 l91 93 -60 54 c-33 30 -65 54
-70 55 -6 0 -40 -30 -76 -67z"/>
<path d="M11425 11169 c-113 -90 -359 -245 -500 -314 -280 -138 -611 -207
-995 -208 -263 0 -491 35 -723 109 -176 57 -431 197 -652 359 -49 36 -91 61
-93 56 -5 -14 186 -722 203 -754 8 -16 13 -32 10 -37 -4 -7 126 -505 270
-1030 39 -142 576 -2141 743 -2769 61 -227 113 -415 115 -418 3 -2 91 13 196
34 l191 38 10 35 c6 19 65 238 131 485 67 248 314 1166 549 2040 236 875 472
1751 524 1947 86 320 96 363 90 413 -4 30 -10 55 -13 54 -3 0 -28 -18 -56 -40z"/>
<path d="M6922 9700 c0 -14 2 -19 5 -12 2 6 2 18 0 25 -3 6 -5 1 -5 -13z"/>
<path d="M8565 5566 c-93 -43 -101 -136 -17 -180 75 -39 202 -24 255 30 34 34
37 94 6 125 -54 54 -160 65 -244 25z"/>
<path d="M7830 5481 c-71 -22 -140 -82 -140 -122 0 -63 57 -103 145 -103 108
0 195 59 195 133 0 75 -102 122 -200 92z"/>
</g>
</svg>
